<?xml version="1.0" encoding="utf-8"?>
<!-- Generator: Adobe Illustrator 26.0.2, SVG Export Plug-In . SVG Version: 6.00 Build 0)  -->
<svg version="1.1" id="Layer_1" xmlns="http://www.w3.org/2000/svg" xmlns:xlink="http://www.w3.org/1999/xlink" x="0px" y="0px"
	 viewBox="0 0 481.9 481.9" style="enable-background:new 0 0 481.9 481.9;" xml:space="preserve">
<style type="text/css">
	.st0{fill:#FF8C00;}
</style>
<g>
	<g>
		<path class="st0" d="M474.4,125.5c-10.8,0-19.6-24.8-19.6-55.2s8.8-55.2,19.6-55.2c4.2,0,7.5-3.4,7.5-7.5S478.5,0,474.4,0h-407
			C32.9,0,3.5,27.8,0.3,63.3c-1.9,21,4.9,41.5,18.5,56.4c12.3,13.4,28.6,20.8,46,20.8h409.6c4.2,0,7.5-3.4,7.5-7.5
			C481.9,128.9,478.5,125.5,474.4,125.5z M423.7,115h-364V100h364L423.7,115L423.7,115z M423.7,77.8h-364V62.8h364L423.7,77.8
			L423.7,77.8z M423.7,40.6h-364V25.6h364L423.7,40.6L423.7,40.6z"/>
	</g>
</g>
<g>
	<g>
		<path class="st0" d="M474.4,466.8c-10.8,0-19.6-24.8-19.6-55.2c0-30.5,8.8-55.2,19.6-55.2c4.2,0,7.5-3.4,7.5-7.5s-3.4-7.5-7.5-7.5
			h-407c-34.4,0-63.9,27.8-67,63.3c-1.9,21,4.9,41.5,18.5,56.4c12.3,13.4,28.6,20.8,46,20.8h409.6c4.2,0,7.5-3.4,7.5-7.5
			C481.9,470.2,478.5,466.8,474.4,466.8z M423.7,456.3h-364v-15.1h364L423.7,456.3L423.7,456.3z M423.7,419.1h-364v-15.1h364
			L423.7,419.1L423.7,419.1z M423.7,381.9h-364v-15.1h364L423.7,381.9L423.7,381.9z"/>
	</g>
</g>
<g>
	<g>
		<path class="st0" d="M481.6,234c-3.2-35.5-32.6-63.3-67-63.3H7.5c-4.2,0-7.5,3.4-7.5,7.5s3.4,7.5,7.5,7.5
			c10.8,0,19.6,24.8,19.6,55.2c0,30.5-8.8,55.2-19.6,55.2c-4.2,0-7.5,3.4-7.5,7.5c0,4.2,3.4,7.5,7.5,7.5h409.6
			c17.4,0,33.7-7.4,46-20.8C476.7,275.5,483.4,255,481.6,234z M422.2,285.7h-364v-15.1h364L422.2,285.7L422.2,285.7z M422.2,248.5
			h-364v-15.1h364L422.2,248.5L422.2,248.5z M422.2,211.3h-364v-15.1h364L422.2,211.3L422.2,211.3z"/>
	</g>
</g>
</svg>
