<?xml version="1.0" encoding="utf-8"?>
<!-- Generator: Adobe Illustrator 26.0.2, SVG Export Plug-In . SVG Version: 6.00 Build 0)  -->
<svg version="1.1" id="Layer_1" xmlns="http://www.w3.org/2000/svg" xmlns:xlink="http://www.w3.org/1999/xlink" x="0px" y="0px" viewBox="0 0 595.1 793.4" style="enable-background:new 0 0 595.1 793.4;" xml:space="preserve">
	<style type="text/css">
	.st0{fill:#542C0E;stroke:#231F20;stroke-width:8;stroke-miterlimit:10;}
	.st1{fill:#FFFFFF;stroke:#231F20;stroke-width:8;stroke-miterlimit:10;}
	.st2{fill:none;stroke:#231F20;stroke-width:8;stroke-miterlimit:10;}
	.st3{fill:#056D38;stroke:#231F20;stroke-width:8;stroke-miterlimit:10;}
	.st4{fill:#F7EC16;stroke:#231F20;stroke-width:8;stroke-miterlimit:10;}
	.st5{fill:none;stroke:#231E20;stroke-width:6;stroke-linecap:round;stroke-linejoin:round;}
	.st6{fill:#231E20;}
</style>
	<rect id="back-cover" x="4.1" y="72.3" class="st0" width="500.3" height="641.9" />
	<polygon id="back-cover-2" class="st1" points="576,636.6 494.2,698.3 4.1,698.3 15.4,56.4 576,64 " />
	<rect id="top-cover" x="90.8" y="4.4" class="st0" width="500.3" height="641.9" />
	<path class="st0" d="M-37,553" />
	<path class="st2" d="M90.8,646.3" />
	<path class="st2" d="M4.1,714.1" />
	<path class="st0" d="M90.8,646.3c-40.7,0-78.2,6.6-86.7,67.8V72.3C16.2,23.4,43.4,9,90.8,4.4V646.3z" />
	<line class="st2" x1="79.7" y1="665.2" x2="536.1" y2="665.2" />
	<path id="green-ribbon" class="st3" d="M460.6,789.4c-17.3,0-32.9-36.3-50.2-36.3c-16.2,0-34,36.3-50.2,36.3V665.2h100.4V789.4z" />
	<path id="yellow-ribbon" class="st4" d="M245.6,789.4c-17.3,0-32.9-36.3-50.2-36.3c-16.2,0-34,36.3-50.2,36.3V665.2h100.4V789.4z" />
	<polyline class="st5" points="169.7,693.3 175.4,693.3 221.2,693.3 " />
	<path class="st5" d="M215.5,693.3v37.5c-0.1,3.1-2.7,5.5-5.7,5.3h-28.6c-3.1,0.1-5.6-2.3-5.7-5.3l0,0v-37.5 M184,693.3V688
	c0.1-3.1,2.7-5.5,5.7-5.3h11.4c3.1-0.1,5.6,2.3,5.7,5.3v5.4" />
	<line class="st5" x1="189.7" y1="706.7" x2="189.7" y2="722.8" />
	<line class="st5" x1="201.2" y1="706.7" x2="201.2" y2="722.8" />
	<path class="st6" d="M429,674.6l-14.1,15.6v34.3l14.1-14V674.6 M434.6,687.1v42.1c-3.2-1.1-6.5-1.6-9.8-1.6c-4.8,0-11.7,2-15.5,4.7
	v-42.1c-4.1-3.4-10-4.7-15.5-4.7s-11.4,1.2-15.5,4.7v45.7c0,0.8,0.6,1.5,1.4,1.6c0.3,0,0.4-0.2,0.7-0.2c4.1-2.1,8.7-3.3,13.3-3.4
	c5.5,0,11.4,1.2,15.5,4.7c3.8-2.7,10.7-4.7,15.5-4.7c4.7-0.1,9.3,1,13.4,3.3c0.2,0.1,0.5,0.2,0.7,0.2c0.8-0.1,1.4-0.8,1.4-1.6v-45.5
	C438.5,688.9,436.6,687.8,434.6,687.1 M403.6,728.9c-6.5-1.8-13.3-1.7-19.7,0.3v-35.5c6.3-2.6,13.4-2.6,19.7,0V728.9z" />
</svg>